# xmcd CD database file
#
# Track frame offsets:
#	150
#	19310
#	36903
#	50545
#	55542
#	71430
#	88923
#	95958
#	109370
#	133744
#	137687
#	148988
#	154629
#	166933
#	176543
#	192032
#	213045
#
# Disc length: 2972 seconds
#
# Revision: 0
# Processed by: cddbd v1.5.2PL0 Copyright (c) Steve Scherf et al.
# Submitted via: CDex 1.51
#
DISCID=f60b9a11
DTITLE=Diederik Wissels - Together
DYEAR=2007
DGENRE=Jazz
TTITLE0=Abraxis
TTITLE1=Bridges built and burnt
TTITLE2=Together
TTITLE3=When nigth falls
TTITLE4=Fado
TTITLE5=Solignac
TTITLE6=Inhale
TTITLE7=Braggtown boogie
TTITLE8=Upon a cloud
TTITLE9=Open event
TTITLE10=Your request
TTITLE11=Chromatically yours (Part One)
TTITLE12=Alone
TTITLE13=Chromatically yours (Part Two)
TTITLE14=My reply
TTITLE15=Stara latarnia
TTITLE16=Exhale
EXTD=YEAR: 2007
EXTT0=
EXTT1=
EXTT2=
EXTT3=
EXTT4=
EXTT5=
EXTT6=
EXTT7=
EXTT8=
EXTT9=
EXTT10=
EXTT11=
EXTT12=
EXTT13=
EXTT14=
EXTT15=
EXTT16=
PLAYORDER=
